<?xml version="1.0" standalone="no"?>
<!DOCTYPE svg PUBLIC "-//W3C//DTD SVG 20010904//EN"
 "http://www.w3.org/TR/2001/REC-SVG-20010904/DTD/svg10.dtd">
<svg version="1.0" xmlns="http://www.w3.org/2000/svg"
 width="1024.000000pt" height="1024.000000pt" viewBox="0 0 1024.000000 1024.000000"
 preserveAspectRatio="xMidYMid meet">
<metadata>
Created by potrace 1.14, written by Peter Selinger 2001-2017
</metadata>
<g transform="translate(0.000000,1024.000000) scale(0.100000,-0.100000)"
fill="#000000" stroke="none">
<path d="M3580 9396 l0 -54 -45 -6 c-42 -7 -45 -9 -45 -37 0 -25 4 -29 29 -29
50 0 61 -9 61 -50 0 -36 2 -38 38 -43 20 -2 41 -2 45 1 5 2 6 24 2 48 l-6 44
45 0 c46 0 46 0 46 34 0 37 -22 53 -59 41 -16 -5 -20 2 -26 50 l-6 55 -40 0
-39 0 0 -54z"/>
<path d="M2794 9395 c-11 -7 -49 -28 -84 -46 -36 -17 -130 -71 -210 -119 -169
-101 -319 -186 -340 -192 -13 -4 -15 -57 -15 -395 l0 -391 105 -52 c58 -29
161 -85 230 -124 69 -40 174 -99 235 -131 l110 -58 45 25 c169 92 277 153 433
247 l178 106 -2 381 -3 381 -30 20 c-17 11 -94 55 -171 98 -77 43 -183 104
-235 135 -196 117 -225 130 -246 115z m210 -214 c94 -54 202 -116 240 -137 38
-21 71 -43 73 -49 1 -5 -21 -23 -50 -39 -28 -16 -133 -77 -232 -136 -99 -59
-188 -110 -197 -113 -16 -6 -122 47 -258 128 -30 18 -103 58 -162 89 -60 32
-108 61 -108 65 0 15 36 38 160 105 69 37 168 93 220 125 52 32 106 59 119 60
14 1 96 -40 195 -98z m-708 -302 c17 -19 19 -42 22 -267 2 -135 1 -256 -3
-269 -4 -18 -12 -23 -35 -23 l-30 0 0 290 c0 308 2 318 46 269z m597 -284 c-3
-9 -8 -14 -10 -11 -3 3 -2 9 2 15 9 16 15 13 8 -4z m263 -390 c-11 -8 -25 -15
-30 -15 -6 1 0 7 14 15 32 19 40 18 16 0z m-46 -29 c0 -2 -7 -7 -16 -10 -8 -3
-12 -2 -9 4 6 10 25 14 25 6z m-60 -31 c0 -6 -56 -35 -67 -35 -4 1 8 9 27 20
39 22 40 22 40 15z m-126 -72 c-37 -29 -44 -29 -44 1 0 18 6 26 23 28 44 7 52
-4 21 -29z"/>
<path d="M5576 9320 c-5 -55 -11 -80 -20 -80 -7 0 -30 -11 -50 -25 l-37 -25
-56 45 c-31 25 -59 44 -62 43 -3 -2 -57 -56 -120 -120 l-113 -117 41 -43 c45
-47 51 -79 26 -128 -15 -29 -19 -30 -80 -30 l-65 0 2 -172 3 -173 71 -8 c62
-8 73 -12 83 -33 13 -30 14 -71 2 -79 -5 -3 -23 -22 -40 -44 l-30 -38 40 -53
c22 -29 71 -86 109 -127 l70 -75 39 33 c84 74 74 71 128 42 26 -15 50 -28 53
-30 2 -2 7 -38 11 -80 4 -48 11 -78 20 -84 16 -10 331 -12 367 -3 24 7 27 17
37 107 6 51 10 59 33 68 15 6 37 20 50 32 l22 21 53 -52 c29 -29 57 -52 63
-52 17 0 133 121 181 188 50 69 50 63 -10 129 -25 26 -28 36 -22 65 11 51 22
58 86 58 l59 0 -2 188 -3 187 -65 5 c-59 5 -65 7 -74 32 -11 32 -1 56 48 113
l34 40 -104 118 c-58 64 -112 117 -120 117 -9 0 -39 -20 -67 -45 l-51 -45 -26
25 c-14 13 -40 29 -57 35 -32 12 -43 40 -43 118 l0 32 -204 0 -203 0 -7 -80z
m309 -20 c3 -5 7 -37 7 -70 1 -59 1 -60 30 -60 37 0 85 -20 138 -59 48 -35 56
-33 120 25 l38 34 17 -26 c9 -14 32 -43 51 -64 41 -45 38 -59 -23 -109 l-36
-30 17 -38 c9 -21 22 -60 29 -88 l12 -50 68 -3 67 -3 0 -89 0 -90 -65 0 c-62
0 -65 -1 -70 -27 -19 -91 -28 -120 -41 -141 -17 -26 -10 -43 35 -86 36 -35 39
-56 10 -82 -12 -10 -28 -32 -36 -48 l-15 -28 -36 35 c-63 60 -70 61 -147 20
-38 -20 -87 -41 -109 -48 l-41 -12 -5 -67 -5 -67 -107 -2 c-82 -2 -109 1 -113
11 -3 8 -5 43 -5 78 0 49 -3 64 -14 64 -27 0 -154 51 -174 70 -19 18 -21 18
-74 -30 l-54 -48 -34 49 c-18 27 -37 49 -42 49 -21 0 -4 39 31 74 l39 38 -20
47 c-11 25 -22 67 -25 92 -5 47 -6 47 -51 53 -24 3 -58 6 -73 6 l-29 0 0 74
c0 41 -3 81 -6 90 -5 14 4 16 63 16 l69 0 13 63 c7 34 21 77 32 95 19 33 19
33 -3 63 -12 16 -33 36 -46 45 l-23 15 53 58 53 58 48 -38 48 -38 41 30 c42
30 123 59 165 59 22 0 23 4 23 65 l0 64 93 4 c50 1 95 4 99 5 4 1 10 -2 13 -8z"/>
<path d="M5695 8983 c-66 -24 -108 -55 -155 -114 -57 -72 -83 -150 -76 -223
28 -279 358 -395 557 -197 64 65 90 126 90 218 1 215 -222 385 -416 316z m169
-105 c77 -24 146 -124 146 -212 0 -38 -28 -101 -63 -142 -120 -142 -352 -60
-365 127 -12 163 125 274 282 227z"/>
<path d="M5402 8660 c0 -14 2 -19 5 -12 2 6 2 18 0 25 -3 6 -5 1 -5 -13z"/>
<path d="M7075 9327 c-6 -67 -9 -74 -34 -84 -14 -7 -38 -19 -52 -29 -26 -17
-27 -16 -65 14 -75 59 -81 58 -196 -63 -57 -59 -105 -111 -106 -116 -2 -5 19
-34 47 -65 57 -62 61 -79 30 -118 -20 -25 -26 -27 -69 -21 -30 4 -50 3 -55 -4
-3 -6 -3 -87 1 -179 l7 -169 61 -9 c54 -8 62 -12 71 -37 9 -27 6 -32 -43 -79
l-52 -49 72 -87 c39 -48 89 -103 111 -123 l41 -35 39 37 c21 21 46 41 56 44
10 3 41 -9 73 -27 l56 -33 7 -83 c6 -73 9 -83 28 -87 12 -3 103 -4 202 -3
l180 3 3 76 3 77 53 40 54 40 60 -54 c33 -30 63 -54 66 -54 6 0 165 184 195
228 l23 34 -36 37 c-40 41 -43 55 -22 106 15 35 15 35 80 35 36 0 67 4 71 10
3 5 7 85 8 177 l2 168 -77 3 c-82 3 -92 9 -102 58 -6 27 -1 38 38 85 l45 54
-23 25 c-12 14 -53 61 -92 105 -100 116 -114 124 -149 85 -10 -12 -34 -30 -52
-41 -31 -19 -35 -20 -51 -5 -10 8 -34 22 -54 31 -37 15 -37 15 -40 82 l-3 68
-202 3 -201 2 -7 -73z m314 -94 l-4 -68 35 -3 c48 -4 88 -20 131 -54 20 -15
41 -28 46 -28 5 0 34 18 65 39 l55 40 36 -49 c21 -27 37 -54 37 -60 0 -6 5 -8
10 -5 25 15 6 -14 -39 -60 -49 -49 -50 -51 -41 -95 19 -104 22 -273 6 -349
-19 -90 -66 -173 -113 -198 -18 -9 -33 -20 -33 -24 0 -9 -97 -54 -172 -80 -54
-18 -68 -27 -68 -43 0 -30 -11 -66 -19 -62 -3 2 -24 -8 -46 -23 -27 -18 -41
-35 -43 -54 -3 -22 -9 -27 -29 -27 -26 0 -26 0 -21 70 l5 69 -52 16 c-29 8
-79 33 -112 55 -34 22 -67 40 -75 40 -8 0 -33 -16 -56 -36 l-42 -36 -44 49
-45 48 46 47 46 47 -21 49 c-12 27 -24 68 -28 91 l-7 41 -58 0 -59 0 0 63 c0
34 -3 72 -6 85 -6 21 -4 22 54 22 l60 0 16 66 c9 37 24 80 32 97 16 29 15 30
-30 76 -25 26 -46 51 -46 56 1 6 21 32 45 59 l43 48 48 -36 c26 -20 50 -36 55
-36 4 0 31 16 60 35 29 19 76 39 106 45 l53 11 0 49 c0 81 -1 80 117 80 l105
0 -3 -67z m366 -743 c-4 -12 -9 -19 -12 -17 -3 3 -2 15 2 27 4 12 9 19 12 17
3 -3 2 -15 -2 -27z m-7 -245 c-24 -37 -43 -41 -43 -9 0 12 6 18 16 16 9 -1 22
5 29 13 22 27 21 16 -2 -20z"/>
<path d="M7240 9004 c-84 -16 -175 -77 -230 -155 -101 -144 -68 -327 77 -434
70 -51 131 -68 219 -63 181 12 311 150 307 326 -3 96 -27 158 -89 220 -80 79
-194 122 -284 106z m99 -114 c94 -27 161 -116 161 -214 0 -68 -16 -111 -60
-154 -43 -43 -93 -63 -160 -65 -62 -1 -101 16 -150 65 -65 65 -79 161 -36 246
53 103 147 150 245 122z"/>
<path d="M4280 9366 c-8 -7 -96 -62 -195 -122 -99 -59 -220 -134 -268 -166
-49 -32 -95 -58 -103 -58 -12 0 -14 -59 -14 -360 l0 -360 38 -23 c20 -13 127
-72 237 -132 110 -59 230 -127 267 -151 l68 -44 97 57 c54 31 130 75 168 98
39 23 120 69 181 103 62 33 122 66 134 74 l22 13 -4 362 -3 361 -173 107 c-94
59 -211 128 -260 153 -48 24 -103 58 -123 73 -42 33 -49 34 -69 15z m-4 -373
c-3 -7 -49 -34 -103 -59 -54 -25 -105 -52 -115 -61 -17 -15 -24 -13 -107 30
-49 26 -96 47 -105 47 -9 0 -16 4 -16 9 0 12 56 54 107 80 24 12 89 50 145 86
57 35 123 77 148 92 l45 28 3 -119 c1 -66 0 -126 -2 -133z m173 173 c42 -24
99 -56 126 -71 239 -132 231 -117 102 -185 l-103 -53 -40 29 c-23 16 -73 44
-112 63 l-72 35 0 113 c0 79 3 113 12 113 6 0 45 -20 87 -44z m-519 -328 c39
-23 68 -47 72 -61 3 -12 6 -75 7 -139 l1 -117 -32 -24 c-34 -25 -162 -97 -172
-97 -8 0 -8 156 1 353 l6 157 26 -17 c14 -9 55 -34 91 -55z m370 -2 c0 -77 -6
-96 -30 -96 -26 0 -150 40 -150 48 0 8 159 112 172 112 4 0 8 -29 8 -64z m107
6 c74 -36 103 -55 103 -66 0 -4 -6 -3 -14 3 -11 9 -23 8 -51 -4 -45 -18 -69
-19 -82 -2 -11 13 -26 97 -18 97 2 0 31 -13 62 -28z m-260 -96 c111 -72 115
-89 38 -149 -91 -69 -85 -73 -85 58 0 63 2 115 5 115 2 0 21 -11 42 -24z m30
-213 c-15 -16 -15 -18 0 -35 15 -17 15 -17 -15 -2 -18 8 -32 18 -32 21 0 10
34 32 50 33 12 0 11 -3 -3 -17z m10 -161 l81 -47 7 -70 c4 -38 5 -89 3 -112
l-3 -42 -125 68 c-197 107 -310 173 -310 180 0 3 46 30 102 58 l102 53 30 -20
c17 -11 68 -42 113 -68z"/>
<path d="M4948 9330 c-5 -17 -19 -35 -30 -41 -19 -10 -19 -11 6 -36 14 -14 28
-34 31 -44 10 -29 41 -23 66 14 12 17 28 37 35 43 10 8 3 20 -28 52 -47 50
-65 53 -80 12z"/>
<path d="M1265 8671 c-30 -13 -54 -44 -61 -79 -5 -26 -1 -36 24 -62 32 -32 51
-36 82 -20 15 8 25 2 60 -37 31 -35 40 -52 34 -68 -16 -48 -16 -108 1 -151
l17 -44 -42 -47 c-35 -40 -46 -47 -74 -45 -65 6 -115 -72 -80 -125 24 -37 79
-57 116 -42 35 14 48 37 48 83 0 29 7 41 44 71 l44 36 34 -21 c47 -28 110 -26
165 6 l44 25 52 -41 c40 -32 51 -47 49 -65 -2 -13 6 -42 18 -64 18 -37 24 -41
58 -41 47 0 77 21 92 64 20 61 -26 121 -87 115 -23 -3 -37 6 -71 42 l-41 46
11 61 c10 52 9 67 -6 107 l-18 45 38 50 c37 48 37 49 84 43 42 -5 49 -3 68 22
29 36 28 76 -2 108 -33 36 -70 43 -112 24 -32 -16 -40 -33 -35 -75 1 -7 -19
-38 -45 -68 -46 -55 -47 -55 -68 -36 -55 50 -140 58 -199 18 l-35 -24 -41 42
c-30 31 -43 54 -49 86 -10 60 -58 85 -117 61z m395 -269 c38 -39 57 -108 38
-142 -19 -36 -81 -64 -123 -56 -83 16 -117 136 -56 197 41 41 101 41 141 1z"/>
<path d="M8125 8308 c-25 -81 -16 -75 -88 -61 -26 5 -36 -2 -88 -58 -75 -80
-79 -93 -43 -130 24 -25 26 -31 14 -39 -8 -5 -20 -10 -25 -10 -6 0 -26 -12
-44 -28 -31 -26 -33 -31 -34 -92 0 -64 0 -64 46 -106 50 -45 55 -58 33 -83 -8
-9 -17 -28 -21 -42 -6 -23 3 -34 70 -94 l76 -68 31 31 c16 18 36 32 43 32 6 0
17 -18 24 -40 14 -48 26 -52 140 -48 l84 3 15 43 c7 23 17 42 22 42 5 0 22
-11 38 -25 17 -14 32 -25 34 -25 12 0 138 129 138 141 0 8 -9 28 -20 44 -27
40 -25 54 8 66 61 23 72 45 72 138 0 47 -4 92 -9 100 -5 8 -24 19 -42 25 -41
14 -46 29 -18 55 l22 21 -19 36 c-20 38 -108 124 -127 124 -6 0 -21 -9 -33
-21 -27 -25 -39 -20 -48 22 -11 56 -19 59 -138 59 -78 0 -110 -4 -113 -12z
m165 -107 c0 -21 8 -36 29 -50 45 -32 83 -37 105 -12 23 26 35 26 52 4 19 -25
17 -43 -7 -69 -15 -16 -20 -30 -15 -47 9 -39 45 -77 72 -77 24 0 25 -3 22 -47
-3 -44 -5 -48 -31 -51 -23 -3 -33 -12 -49 -49 l-20 -45 21 -29 c27 -36 26 -50
-3 -78 -23 -22 -26 -22 -48 -7 -28 20 -70 20 -108 1 -25 -13 -30 -22 -30 -50
0 -34 -1 -35 -40 -35 -37 0 -40 2 -40 28 0 39 -10 49 -63 63 -43 12 -49 11
-77 -10 -36 -26 -52 -23 -76 14 -16 25 -16 27 10 54 24 25 25 30 15 62 -15 43
-45 77 -73 81 -17 2 -21 10 -21 42 0 36 3 40 34 51 22 7 41 23 53 45 22 42 22
57 3 103 -13 32 -13 37 4 58 l18 23 28 -22 c22 -18 36 -21 64 -16 56 10 71 22
71 54 0 26 4 29 38 33 20 2 43 4 50 5 7 1 12 -10 12 -27z"/>
<path d="M8186 8065 c-104 -37 -151 -142 -110 -245 54 -135 268 -123 324 18
19 49 8 124 -25 168 -44 57 -124 83 -189 59z m98 -116 c31 -25 33 -51 5 -90
-39 -55 -129 -31 -129 34 0 66 71 98 124 56z"/>
<path d="M3597 8133 c-3 -4 -8 -25 -12 -45 -6 -32 -11 -37 -39 -40 -27 -3 -31
-7 -31 -33 0 -27 4 -30 33 -33 29 -3 32 -6 32 -37 0 -28 5 -36 24 -41 45 -11
61 -2 64 37 3 30 8 37 35 45 25 7 33 15 35 37 3 25 1 27 -32 27 -34 0 -35 1
-38 43 -3 39 -5 42 -35 45 -17 2 -33 -1 -36 -5z"/>
<path d="M4940 8103 c0 -52 -10 -64 -50 -61 -26 2 -35 -1 -38 -15 -5 -24 16
-47 43 -47 18 0 24 -7 29 -39 6 -42 24 -54 62 -45 18 5 24 13 24 34 0 31 14
47 49 52 52 7 54 68 2 68 -31 0 -41 14 -41 61 0 27 -2 29 -40 29 -40 0 -40 0
-40 -37z"/>
<path d="M6518 8093 c-9 -10 -18 -27 -20 -38 -2 -13 -12 -21 -31 -23 -40 -5
-33 -52 8 -49 14 2 21 -7 28 -35 6 -24 16 -38 30 -42 28 -7 34 -2 41 38 5 26
12 36 29 38 31 4 29 39 -3 55 -15 7 -27 24 -30 40 -6 33 -30 41 -52 16z"/>
<path d="M2156 7961 l-28 -29 23 -43 c12 -24 26 -47 32 -51 15 -9 27 0 27 21
0 10 9 29 19 43 19 24 19 24 -5 56 -14 18 -29 32 -33 32 -4 0 -20 -13 -35 -29z"/>
<path d="M2575 7737 c-27 -4 -92 -28 -144 -53 -156 -76 -252 -190 -302 -359
-20 -69 -20 -85 -20 -1455 -1 -1501 -3 -1434 52 -1543 29 -56 109 -156 169
-210 44 -40 147 -98 224 -127 16 -6 27 -12 25 -15 -2 -2 -304 -6 -669 -8
l-666 -4 -44 -23 c-70 -35 -109 -69 -138 -119 l-27 -46 -3 -469 c-3 -543 -5
-529 84 -625 83 -90 86 -91 432 -97 163 -3 378 -1 477 3 99 5 181 8 182 8 2
-1 -6 -26 -17 -56 -12 -36 -23 -108 -30 -202 -6 -80 -15 -183 -21 -229 -5 -46
-14 -159 -19 -253 -5 -93 -16 -255 -24 -360 -20 -249 -13 -279 83 -377 49 -49
78 -70 111 -80 37 -11 437 -13 2220 -13 l2175 0 48 23 c60 30 131 99 152 147
17 43 20 190 5 350 -5 55 -12 161 -15 235 -6 133 -50 617 -61 675 -3 17 -17
56 -31 88 -14 31 -23 60 -19 64 3 4 55 0 114 -8 86 -11 241 -13 802 -11 382 2
740 8 795 13 129 13 254 55 420 139 110 56 135 73 166 114 20 26 41 64 47 84
7 24 12 197 13 487 1 518 1 522 -78 606 -73 78 -109 90 -303 102 l-168 11 -4
59 c-4 50 -9 62 -34 82 -35 28 -37 22 75 171 l75 101 167 -5 c162 -5 168 -4
221 21 68 31 128 83 165 145 l28 47 -1 952 0 951 -26 39 c-33 50 -135 152
-294 294 l-129 116 -415 -6 c-456 -7 -443 -5 -509 -71 -30 -30 -31 -35 -31
-113 0 -84 7 -120 34 -195 14 -38 15 -47 2 -70 -11 -22 -37 -250 -36 -323 0
-15 54 -17 649 -15 357 0 652 -2 656 -6 4 -4 4 -347 0 -763 l-8 -756 -28 -42
c-16 -24 -49 -58 -73 -75 l-45 -33 -130 3 -130 3 29 44 c39 58 41 120 5 173
-14 20 -25 41 -25 45 0 4 5 0 11 -9 9 -15 26 -18 119 -18 110 0 110 0 110 24
0 31 -26 40 -83 31 -22 -4 -147 -7 -277 -7 l-236 0 4 -28 c4 -27 7 -28 60 -32
31 -1 72 2 91 9 19 7 37 10 39 8 4 -3 -95 -138 -158 -215 -26 -33 -68 -40
-232 -40 l-161 0 -47 48 c-32 32 -54 66 -69 107 -12 33 -26 69 -31 80 -5 11
-10 31 -12 45 -5 43 -52 -98 -53 -157 0 -61 28 -101 118 -172 69 -53 99 -60
290 -60 80 -1 137 -5 135 -10 -1 -5 -21 -46 -43 -90 l-40 -81 -61 0 c-133 0
-166 -27 -187 -151 l-12 -74 -110 -3 c-60 -1 -182 1 -269 5 l-160 8 66 48 c77
57 116 102 156 183 59 118 56 25 57 1524 l0 1385 -24 74 c-14 41 -47 108 -74
149 -74 110 -161 172 -312 223 l-70 24 -2335 0 c-1284 0 -2357 -3 -2385 -8z
m4719 -112 c42 -7 96 -23 121 -34 101 -45 201 -184 226 -316 16 -80 25 -2614
10 -2726 -23 -170 -84 -257 -248 -355 l-93 -56 -182 -7 c-167 -6 -188 -9 -238
-33 -30 -14 -72 -39 -92 -55 l-37 -30 -553 -5 c-304 -3 -1046 -6 -1648 -6
-711 -1 -1162 -5 -1285 -13 -193 -12 -510 -5 -500 11 3 5 -3 11 -12 14 -10 3
-25 19 -34 34 -13 24 -26 30 -85 41 -89 16 -133 37 -218 103 -138 106 -192
206 -207 383 -12 146 -11 2574 1 2660 19 125 89 244 183 309 83 57 148 78 272
86 61 4 1107 8 2327 8 1900 2 2227 0 2292 -13z m1649 -782 c32 -34 76 -74 98
-89 21 -15 39 -31 39 -35 0 -11 -287 -12 -292 -1 -2 4 -2 72 0 151 l4 143 46
-53 c26 -30 73 -82 105 -116z m-523 152 c0 -25 -79 -123 -80 -99 0 5 -7 1 -14
-9 -8 -10 -26 -20 -42 -23 -21 -4 -32 1 -50 23 -13 15 -24 35 -24 43 -1 9 -5
5 -10 -8 -8 -19 -13 -21 -29 -13 -13 8 -17 17 -14 32 5 19 4 20 -15 10 -25
-13 -32 -14 -32 -2 0 5 10 12 23 16 l22 8 -23 4 c-12 2 -20 8 -18 12 6 9 306
15 306 6z m260 -150 c9 -223 9 -223 280 -232 l190 -6 0 -86 0 -86 -588 -4
-587 -3 3 47 c3 32 7 43 13 34 7 -11 9 -9 9 6 0 11 9 27 20 35 11 8 20 22 20
31 0 23 100 34 310 34 179 0 221 10 236 57 4 13 16 35 27 50 15 20 18 36 14
64 -6 37 -65 136 -77 129 -3 -2 -7 6 -7 17 -1 12 6 22 18 25 10 3 19 9 19 14
0 8 50 17 80 15 12 -1 16 -27 20 -141z m-489 -9 c3 -28 -4 -62 -15 -68 -20
-13 -69 -8 -88 9 -26 23 -22 58 8 82 24 19 27 19 60 4 19 -9 34 -21 35 -27z
m316 22 c7 -6 13 -28 13 -49 0 -73 -66 -104 -115 -54 -14 13 -25 29 -25 35 0
19 29 69 47 79 19 12 60 6 80 -11z m177 -2074 c14 -37 0 -66 -92 -185 -53 -69
-117 -156 -142 -193 -47 -70 -77 -84 -72 -33 8 78 235 426 278 427 12 0 25 -7
28 -16z m-237 -560 c7 -10 13 -34 13 -54 l0 -37 -77 -7 c-42 -3 -114 -6 -160
-6 l-83 0 0 38 c0 66 8 80 49 85 20 3 83 3 141 1 85 -2 107 -6 117 -20z m-212
-230 c61 -15 152 -64 183 -97 16 -18 15 -18 -13 -11 -17 3 -48 14 -70 24 -95
41 -110 43 -339 36 -122 -4 -376 -7 -566 -7 -209 0 -368 -4 -404 -11 -68 -13
-110 -48 -154 -131 l-27 -52 0 -445 0 -445 29 -58 c15 -32 25 -61 22 -64 -11
-11 -92 82 -117 133 l-24 49 0 435 c0 397 2 438 18 475 44 98 107 157 195 181
70 20 1180 9 1267 -12z m620 7 l40 -6 -64 -28 c-56 -24 -271 -83 -275 -75 -1
2 -23 28 -49 60 -26 31 -47 59 -47 63 0 8 333 -4 395 -14z m-4525 -111 c0 -5
-13 -72 -30 -147 -26 -124 -105 -528 -112 -578 -3 -19 -13 -20 -155 -25 -143
-5 -153 -6 -177 -29 -53 -50 -70 -105 -74 -242 l-4 -126 41 -6 c52 -7 2361 1
2419 9 l42 5 2 67 c5 181 -8 241 -64 292 l-32 30 -168 0 c-150 0 -167 2 -172
18 -7 24 -68 315 -106 507 -18 88 -39 177 -47 198 -9 21 -14 39 -12 40 2 1
135 -1 294 -4 160 -3 386 -4 503 -1 124 3 212 1 212 -4 0 -5 -8 -29 -17 -54
-15 -39 -18 -99 -21 -475 -4 -478 -1 -513 54 -612 l35 -63 -848 -1 c-466 0
-1200 -1 -1631 -2 -430 -1 -782 -1 -782 1 0 1 14 28 30 59 l30 56 0 475 c0
457 -1 477 -20 517 -11 23 -34 55 -50 71 -16 16 -30 31 -30 34 0 3 200 4 445
2 276 -1 445 -6 445 -12z m-1005 -49 c22 -10 48 -27 58 -38 l18 -21 -408 3
c-299 1 -425 -1 -473 -11 -163 -32 -255 -36 -705 -31 -248 3 -465 8 -484 11
-42 7 -74 -11 -96 -55 -14 -26 -16 -83 -15 -425 0 -216 3 -399 5 -406 2 -7 1
-37 -3 -67 l-7 -55 -32 33 c-18 18 -37 50 -43 72 -7 26 -10 182 -8 457 3 395
4 419 23 450 33 55 90 86 170 93 39 3 495 6 1015 7 886 1 947 -1 985 -17z
m4932 -120 c31 -29 35 -97 31 -441 l-4 -295 -27 -59 c-28 -61 -51 -86 -102
-114 -26 -14 -99 -18 -548 -25 l-519 -9 -66 35 c-37 19 -73 32 -81 29 -9 -3
-11 0 -6 7 4 7 -1 21 -11 32 -14 16 -8 14 30 -7 48 -27 49 -27 95 -10 40 14
105 16 539 16 405 0 498 3 520 14 41 21 81 68 92 107 13 43 13 620 1 685 -5
27 -13 57 -17 68 -6 17 -5 17 22 3 16 -8 39 -25 51 -36z m-5150 -7 c-3 -3 -12
-4 -19 -1 -8 3 -5 6 6 6 11 1 17 -2 13 -5z m44 -11 c12 -16 12 -17 -2 -6 -9 7
-19 10 -22 6 -4 -3 -7 -1 -7 5 0 17 16 15 31 -5z m2472 -57 c3 -35 24 -148 47
-252 23 -104 43 -201 46 -215 l6 -26 -228 -6 c-125 -4 -447 -7 -715 -7 -459 0
-487 1 -483 18 9 41 85 423 96 477 6 33 13 63 15 68 2 4 276 7 607 7 l603 0 6
-64z m1804 22 c42 -39 18 -108 -37 -108 -56 0 -74 65 -32 113 20 23 41 22 69
-5z m-4197 8 c0 -2 -7 -7 -16 -10 -8 -3 -12 -2 -9 4 6 10 25 14 25 6z m4009
-22 c33 -41 28 -92 -14 -147 -19 -25 -40 -47 -46 -49 -9 -3 -9 -10 1 -27 17
-33 -1 -71 -34 -71 -41 0 -49 21 -44 122 4 97 19 139 60 178 29 27 52 25 77
-6z m-4670 -28 c8 -10 10 -31 6 -63 -10 -78 -28 -154 -37 -159 -4 -3 -8 -4 -8
-2 -1 28 -30 220 -35 228 -10 16 61 12 74 -4z m6068 -83 c-2 -16 -4 -5 -4 22
0 28 2 40 4 28 2 -13 2 -35 0 -50z m-5539 37 c35 -16 47 -29 67 -72 29 -61 31
-104 10 -156 -66 -156 -263 -149 -330 12 -20 46 -13 117 15 163 40 66 154 91
238 53z m-347 -23 c-10 -9 -11 -8 -5 6 3 10 9 15 12 12 3 -3 0 -11 -7 -18z
m-669 -136 c30 -26 33 -35 36 -100 5 -79 -5 -98 -62 -128 -56 -29 -103 22
-113 123 -6 52 -5 55 34 94 23 22 48 40 57 40 8 0 30 -13 48 -29z m360 -14 c9
-18 8 -19 -25 -13 -52 10 -67 -14 -29 -45 16 -13 37 -28 46 -34 9 -5 19 -24
22 -42 9 -46 -31 -85 -84 -81 -34 3 -37 6 -40 36 -4 36 12 43 34 15 13 -17 15
-17 29 1 21 28 20 32 -30 66 -35 24 -45 37 -45 59 0 30 21 55 60 69 27 11 44
2 62 -31z m-647 -14 c40 -113 42 -114 74 -22 21 58 51 80 51 36 0 -22 -10 -53
-58 -186 l-16 -45 -15 24 c-21 31 -66 155 -74 203 -9 55 17 48 38 -10z m-256
20 c12 -10 26 -37 32 -61 8 -39 7 -61 -8 -115 -6 -25 -55 -47 -103 -47 l-40 0
0 120 0 120 49 0 c32 0 56 -6 70 -17z m186 -3 c0 -11 -13 -16 -43 -18 -34 -3
-42 -7 -38 -18 3 -9 6 -20 6 -25 0 -5 16 -9 35 -9 28 0 35 -4 35 -20 0 -16 -7
-20 -35 -20 -33 0 -35 -2 -35 -35 0 -30 3 -35 24 -35 35 0 56 -10 56 -26 0
-10 -15 -14 -60 -14 l-60 0 0 120 0 121 58 -3 c43 -2 57 -7 57 -18z m545 -7
c13 -17 20 -38 18 -57 -2 -24 -12 -34 -49 -53 -43 -21 -47 -27 -53 -68 -7 -43
-18 -56 -31 -35 -4 6 -3 62 1 125 l7 115 43 0 c34 0 47 -5 64 -27z m320 -253
c23 -128 5 -191 -75 -270 l-46 -45 -552 0 -552 0 -3 27 c-7 64 -37 61 527 59
503 -2 513 -2 556 19 70 34 83 71 102 300 l7 85 13 -60 c7 -33 18 -85 23 -115z
m3556 -134 c9 -13 14 -45 14 -92 l0 -72 -1127 2 -1128 1 0 55 c0 41 6 63 23
87 21 30 27 32 90 35 37 2 527 3 1090 3 1002 0 1024 0 1038 -19z m510 -468
c40 -49 51 -83 58 -183 4 -49 16 -187 26 -305 44 -487 56 -719 41 -777 -16
-57 -55 -101 -116 -129 l-50 -24 -2128 0 c-2393 0 -2159 -8 -2244 76 -56 56
-60 85 -40 274 9 85 19 205 22 265 3 61 12 173 20 250 8 77 19 209 25 294 11
164 24 211 73 264 l26 27 2130 0 2129 0 28 -32z"/>
<path d="M2980 7460 c-306 -4 -350 -7 -387 -24 -55 -23 -150 -125 -188 -201
l-30 -60 -3 -1148 c-2 -819 0 -1164 8 -1202 6 -30 25 -82 42 -115 36 -72 113
-139 196 -170 52 -20 84 -20 2327 -20 1504 -1 2288 3 2313 9 93 26 171 106
224 232 22 53 22 62 30 699 10 859 1 1634 -19 1714 -30 124 -92 204 -197 259
l-61 32 -1955 0 c-1075 1 -2110 -2 -2300 -5z m1942 -1452 c-3 -1026 -6 -1365
-15 -1370 -7 -4 -513 -8 -1125 -8 -1074 0 -1114 1 -1150 19 -49 25 -88 65
-123 126 l-29 50 0 1157 0 1157 23 53 c32 71 65 108 123 138 l49 25 1090 2
c600 2 1101 4 1115 6 14 2 30 5 35 6 7 1 9 -445 7 -1361z m115 1270 c-2 -18
-4 -6 -4 27 0 33 2 48 4 33 2 -15 2 -42 0 -60z m1383 -28 c37 -12 56 -25 58
-37 2 -16 2 -17 -8 -1 -7 12 -32 19 -83 25 -39 4 -62 9 -49 11 12 2 22 8 22
13 0 11 -6 12 60 -11z m-237 -7 c-13 -2 -33 -2 -45 0 -13 2 -3 4 22 4 25 0 35
-2 23 -4z m-200 -204 c-4 -4 -6 22 -3 59 l5 67 3 -59 c2 -32 -1 -63 -5 -67z
m389 29 c1 -29 3 -75 3 -102 l0 -49 55 -12 c30 -6 87 -28 127 -49 l71 -38 74
60 c41 33 80 67 87 76 12 14 24 5 102 -71 49 -48 89 -94 89 -102 0 -19 -60
-97 -101 -131 l-29 -25 40 -80 c25 -48 43 -101 47 -131 l6 -52 108 -7 109 -7
0 -123 0 -123 -72 -6 c-40 -3 -89 -7 -108 -9 -34 -2 -35 -3 -43 -57 -7 -55
-46 -149 -75 -182 -17 -20 -18 -18 70 -115 27 -28 48 -55 48 -60 -1 -4 -40
-50 -88 -100 l-87 -93 -72 71 -73 70 -82 -41 c-46 -22 -111 -46 -145 -52 l-63
-12 0 -102 c0 -57 -3 -104 -7 -106 -5 -2 -65 -2 -135 0 l-128 4 0 102 0 102
-47 12 c-70 18 -153 52 -196 81 l-38 24 -74 -73 -75 -74 -31 29 c-17 17 -58
60 -91 98 l-60 67 61 69 61 69 -29 61 c-16 34 -37 92 -47 129 -10 37 -23 70
-28 74 -6 4 -33 8 -61 8 -27 0 -67 3 -87 6 l-38 7 0 123 0 124 39 0 c21 0 65
3 98 6 l61 7 6 43 c8 62 41 151 70 188 l24 33 -64 68 c-36 38 -63 74 -62 81 3
12 166 184 174 184 2 0 16 -12 32 -27 15 -16 49 -48 74 -72 l47 -44 68 35 c63
33 105 48 175 63 28 5 30 11 44 143 l6 62 129 0 129 0 2 -52z m130 -45 c8 -10
6 -13 -6 -13 -13 0 -16 10 -14 58 1 53 2 54 5 12 3 -24 9 -50 15 -57z m-835
81 c-3 -3 -12 -4 -19 -1 -8 3 -5 6 6 6 11 1 17 -2 13 -5z m313 -88 c0 -2 -9
-6 -20 -9 -11 -3 -18 -1 -14 4 5 9 34 13 34 5z m-130 -48 c9 -3 10 -7 3 -11
-5 -3 -21 6 -34 21 -17 19 -18 22 -4 11 11 -9 27 -18 35 -21z m776 -13 c-9 -9
-21 -13 -27 -10 -7 5 -2 12 13 19 29 16 35 12 14 -9z m-1186 -56 c-7 -11 -14
-18 -17 -15 -3 3 0 12 7 21 18 21 23 19 10 -6z m1610 -7 c52 -42 80 -72 80
-82 0 -19 -15 -8 -71 54 -50 55 -53 65 -9 28z m-1687 -72 c-10 -11 -23 -20
-30 -20 -9 0 -7 6 5 19 24 26 47 27 25 1z m1782 -48 c-5 -4 -17 -19 -25 -33
-8 -14 -30 -49 -48 -77 -18 -28 -33 -54 -32 -58 1 -4 -3 -10 -9 -13 -9 -6 -3
-30 25 -108 0 -2 32 -5 69 -8 38 -3 74 -10 80 -17 7 -8 5 -9 -8 -4 -10 3 -47
6 -81 6 l-63 0 -22 60 c-12 32 -26 62 -32 66 -5 3 5 22 24 43 19 21 49 63 68
94 18 31 40 57 49 57 9 0 11 -3 5 -8z m-1724 -119 c13 -16 12 -17 -3 -4 -10 7
-18 15 -18 17 0 8 8 3 21 -13z m-370 -488 c0 -99 -4 -205 -9 -235 -7 -40 -9
43 -9 300 0 281 2 330 8 235 5 -66 9 -201 10 -300z m146 -37 c-1 -46 -3 -11
-3 77 0 88 2 125 3 83 2 -42 2 -114 0 -160z m-30 115 c-2 -16 -4 -3 -4 27 0
30 2 43 4 28 2 -16 2 -40 0 -55z m2110 -195 c-2 -29 -3 -6 -3 52 0 58 1 81 3
53 2 -29 2 -77 0 -105z m-2029 -65 c-10 -2 -26 -2 -35 0 -10 3 -2 5 17 5 19 0
27 -2 18 -5z m99 -9 c-3 -3 -12 -4 -19 -1 -8 3 -5 6 6 6 11 1 17 -2 13 -5z
m82 -56 c5 -13 11 -34 15 -48 5 -19 2 -16 -13 10 -20 34 -26 60 -16 60 3 0 9
-10 14 -22z m1611 -112 c0 -5 -7 -3 -15 4 -8 7 -15 22 -15 34 1 20 2 20 15 -4
8 -14 14 -29 15 -34z m-2003 -3 c-3 -10 -5 -4 -5 12 0 17 2 24 5 18 2 -7 2
-21 0 -30z m423 23 c0 -3 -4 -8 -10 -11 -5 -3 -10 -1 -10 4 0 6 5 11 10 11 6
0 10 -2 10 -4z m-39 -49 c-10 -9 -11 -8 -5 6 3 10 9 15 12 12 3 -3 0 -11 -7
-18z m1619 -226 c-5 -11 -15 -23 -21 -27 -6 -3 -3 5 6 20 20 30 30 35 15 7z
m-1535 -62 c63 -65 58 -70 -8 -10 -33 31 -64 71 -55 71 2 0 30 -28 63 -61z
m1459 -21 c-54 -64 -142 -138 -163 -137 -10 0 -8 4 7 9 12 5 53 40 90 78 64
65 106 97 66 50z m-988 -38 c11 0 14 -19 12 -97 -2 -82 -2 -87 -5 -28 -4 90
-10 115 -28 115 -7 0 -17 5 -21 12 -5 8 -2 9 10 5 10 -4 24 -7 32 -7z m452
-247 c-21 -2 -55 -2 -75 0 -21 2 -4 4 37 4 41 0 58 -2 38 -4z m-872 -155 c7
-12 -48 -10 -66 2 -11 8 -5 10 23 8 21 -1 41 -6 43 -10z m1117 5 c-7 -2 -19
-2 -25 0 -7 3 -2 5 12 5 14 0 19 -2 13 -5z m42 -11 c-3 -3 -11 0 -18 7 -9 10
-8 11 6 5 10 -3 15 -9 12 -12z m-592 -14 c15 -13 10 -65 -6 -75 -6 -3 -7 -1
-3 5 4 7 3 12 -2 12 -9 0 -32 43 -32 60 0 14 28 12 43 -2z m-206 -32 c0 -8 -6
-12 -14 -9 -7 3 -13 0 -13 -6 0 -6 -17 -11 -37 -11 -43 0 -35 14 17 28 48 14
47 14 47 -2z m770 -12 c7 -19 -4 -29 -39 -38 -26 -6 -28 -4 -28 24 0 27 3 30
30 30 19 0 33 -6 37 -16z m338 -4 c-19 -21 -60 -26 -84 -11 -16 10 1 16 64 24
17 2 32 5 34 6 2 0 -4 -8 -14 -19z m-827 -29 c-1 -22 -5 -38 -10 -35 -4 3 -15
-12 -24 -33 -9 -21 -18 -32 -21 -26 -4 11 46 131 55 132 2 1 2 -17 0 -38z
m220 -10 c4 -43 -8 -55 -48 -46 -37 8 -47 27 -31 61 9 21 17 25 44 22 28 -3
32 -7 35 -37z m-893 -11 c-3 -5 -13 -10 -21 -10 -8 0 -14 5 -14 10 0 6 9 10
21 10 11 0 17 -4 14 -10z m-481 -130 c4 -95 8 -117 23 -128 14 -10 73 -12 270
-10 139 1 255 -1 259 -5 4 -4 -121 -7 -278 -7 -156 0 -287 2 -289 4 -2 2 -3
64 -1 136 2 73 5 130 7 128 2 -2 6 -55 9 -118z m836 90 c0 -5 -14 -10 -31 -10
-17 0 -28 4 -24 10 3 6 17 10 31 10 13 0 24 -4 24 -10z m757 -52 c-2 -13 -4
-5 -4 17 -1 22 1 32 4 23 2 -10 2 -28 0 -40z m-1104 -12 c53 7 60 -8 11 -26
-14 -6 -24 -18 -24 -30 0 -17 -7 -20 -40 -20 -29 0 -40 4 -40 15 0 8 -7 15
-15 15 -18 0 -20 26 -3 44 9 10 20 11 37 5 13 -5 46 -6 74 -3z m1185 -173
c-21 -2 -57 -2 -80 0 -24 2 -7 4 37 4 44 0 63 -2 43 -4z"/>
<path d="M3609 7272 c-31 -20 -120 -68 -198 -107 l-141 -69 -1 -111 c-1 -60
-1 -162 1 -226 1 -75 -2 -119 -9 -123 -6 -4 -53 12 -104 34 l-94 42 -54 -34
c-81 -52 -290 -166 -324 -178 l-30 -10 0 -294 0 -294 155 -73 c85 -41 183 -91
217 -111 34 -21 67 -38 72 -38 6 0 44 20 86 45 l75 44 2 -187 c2 -103 3 -215
3 -250 l0 -62 50 -24 c28 -13 97 -46 155 -73 232 -110 224 -108 272 -89 24 10
120 60 214 111 l171 95 6 166 c4 92 7 198 7 236 0 37 2 68 4 68 2 0 48 -18
102 -40 81 -32 101 -37 114 -26 8 6 26 17 40 23 14 6 96 51 183 101 87 50 161
92 165 94 4 2 6 134 4 294 l-3 291 -67 30 c-37 17 -122 56 -190 87 -68 31
-139 68 -157 82 l-34 26 -28 -20 c-34 -23 -80 -47 -110 -56 l-23 -7 0 236 c0
216 -1 236 -17 241 -10 3 -34 13 -53 23 -19 10 -87 40 -150 66 -63 25 -139 60
-169 76 -30 16 -62 29 -70 29 -9 0 -41 -17 -72 -38z m103 -101 c18 -11 85 -38
147 -61 63 -22 121 -46 128 -52 20 -16 15 -35 -11 -42 -13 -3 -48 -22 -77 -42
-30 -20 -73 -47 -96 -61 l-43 -25 0 -83 0 -82 -50 -7 c-36 -5 -77 -23 -150
-68 -55 -34 -100 -66 -100 -73 0 -6 20 -22 45 -34 25 -12 45 -24 45 -26 0 -6
-37 9 -107 45 l-63 32 0 222 0 223 118 56 c64 31 131 65 147 76 17 11 31 20
32 20 1 1 17 -8 35 -18z m621 -604 c16 -11 79 -42 140 -69 124 -54 152 -74
127 -89 -8 -6 -62 -39 -120 -74 -58 -36 -108 -73 -112 -83 -3 -9 -7 -45 -7
-78 l-1 -61 -42 -7 c-25 -4 -71 -26 -112 -53 -74 -49 -194 -108 -202 -101 -2
3 -6 109 -9 237 l-4 231 108 55 c59 30 125 70 147 89 21 19 44 31 49 28 6 -3
23 -14 38 -25z m-1108 -52 c92 -45 162 -85 174 -101 20 -25 21 -39 21 -235 l0
-209 -26 0 c-14 0 -73 25 -130 56 -57 30 -104 51 -104 45 0 -6 5 -11 11 -11 5
0 8 -4 4 -9 -3 -5 4 -12 15 -16 11 -4 35 -19 52 -35 17 -16 35 -27 39 -25 10
7 18 -20 13 -42 -5 -19 -143 -109 -182 -120 -13 -3 -37 6 -66 26 -24 17 -57
36 -73 41 -66 25 -162 73 -158 80 2 3 -6 6 -18 6 -22 -1 -22 -1 -25 231 l-2
231 118 61 c65 33 129 69 143 80 13 11 28 20 32 21 5 0 78 -34 162 -75z m498
-49 c15 -1 26 -5 24 -11 -6 -19 -55 -16 -88 5 l-34 20 35 -7 c19 -4 47 -7 63
-7z m-8 -156 c9 0 47 18 84 39 l69 39 6 -30 c9 -44 7 -368 -1 -368 -5 0 -48
20 -97 44 l-89 43 -68 -38 c-38 -22 -71 -39 -74 -39 -3 0 -5 88 -5 195 l0 195
80 -40 c44 -22 87 -40 95 -40z m18 -384 c18 -13 50 -29 72 -36 62 -20 182 -76
190 -89 9 -15 -5 -25 -125 -97 -136 -81 -130 -74 -130 -166 l0 -78 -38 0 c-40
0 -137 -43 -182 -81 -24 -20 -23 -20 15 1 52 29 141 59 154 51 10 -7 19 -231
8 -230 -4 0 -55 23 -114 50 -123 58 -161 74 -185 83 -16 5 -18 25 -19 216 -1
115 -2 215 -3 221 -1 6 53 39 119 74 66 34 136 72 155 83 44 27 44 27 83 -2z"/>
<path d="M4104 6316 c16 -13 35 -22 42 -19 7 2 22 -1 33 -7 12 -6 27 -8 33 -4
11 7 -38 27 -112 48 -25 7 -25 7 4 -18z"/>
<path d="M3315 6374 c-27 -20 -81 -51 -120 -70 -38 -19 -64 -34 -57 -34 18 0
109 47 172 90 30 20 62 40 70 43 13 5 13 5 0 6 -8 0 -37 -16 -65 -35z"/>
<path d="M3450 5340 c-9 -6 -10 -10 -3 -10 6 0 15 5 18 10 8 12 4 12 -15 0z"/>
<path d="M3110 4921 l0 -122 85 2 c72 1 85 4 85 18 0 27 -21 41 -62 41 -52 0
-53 28 0 32 48 4 53 38 7 52 -59 17 -59 19 -9 26 63 9 74 15 74 41 0 17 -7 19
-67 19 -38 0 -78 3 -90 6 -23 6 -23 6 -23 -115z"/>
<path d="M3513 5028 c-4 -7 -20 -40 -35 -73 l-27 -60 -20 50 c-31 74 -35 80
-65 83 -25 3 -27 1 -21 -20 3 -13 26 -65 51 -116 62 -127 65 -126 151 64 27
58 27 63 11 73 -23 14 -35 14 -45 -1z"/>
<path d="M4002 5003 c3 -33 7 -38 30 -41 27 -3 27 -5 30 -80 3 -71 5 -77 26
-80 21 -3 22 -1 22 77 l0 81 30 -6 c34 -7 49 13 33 48 -7 17 -19 22 -61 24
-29 1 -66 6 -83 9 -30 7 -30 7 -27 -32z"/>
<path d="M4244 5025 c-2 -5 0 -57 4 -115 l7 -105 83 -3 c45 -2 82 -1 82 2 0 3
-4 16 -10 30 -8 22 -16 26 -50 26 -29 0 -40 4 -40 15 0 10 10 15 29 15 17 0
33 4 36 10 10 16 -14 50 -35 50 -10 0 -22 5 -25 10 -3 6 5 10 19 10 41 0 76
18 76 39 0 18 -8 20 -86 23 -52 2 -88 -1 -90 -7z"/>
<path d="M2848 5023 l-38 -4 0 -111 0 -111 72 6 c62 5 75 10 104 38 40 39 50
78 31 116 -30 57 -78 76 -169 66z m89 -63 c21 0 34 -36 23 -64 -8 -21 -16 -26
-44 -26 -33 0 -34 2 -38 43 -6 52 -2 60 26 53 11 -3 26 -6 33 -6z"/>
<path d="M3751 5008 l-43 -21 4 -63 c3 -54 9 -68 33 -94 51 -53 130 -38 166
31 19 37 20 47 9 82 -25 85 -84 107 -169 65z m111 -63 c17 -38 -3 -75 -41 -75
-71 0 -84 76 -16 93 38 9 45 7 57 -18z"/>
<path d="M4520 5017 c-27 -14 -35 -36 -26 -73 7 -25 27 -38 79 -48 46 -11 30
-26 -28 -26 -55 0 -55 0 -49 -27 11 -44 14 -46 67 -40 57 5 97 39 97 81 0 29
-14 41 -67 57 -50 14 -56 29 -14 29 41 0 81 17 81 34 0 26 -95 36 -140 13z"/>
<path d="M6133 6674 c-179 -37 -337 -193 -374 -371 -20 -99 -8 -197 35 -286
85 -177 246 -277 447 -277 179 0 329 92 417 257 53 101 69 200 47 308 -30 149
-169 308 -313 359 -59 21 -184 26 -259 10z m464 -516 c-3 -8 -6 -5 -6 6 -1 11
2 17 5 13 3 -3 4 -12 1 -19z m-22 -85 c-3 -16 -10 -32 -15 -37 -5 -5 -4 7 2
27 13 43 23 50 13 10z"/>
<path d="M4915 4337 c-77 -77 -48 -207 52 -236 25 -7 42 -4 81 14 55 26 68 43
78 102 13 84 -47 153 -134 153 -36 0 -50 -6 -77 -33z"/>
<path d="M8170 6945 c0 -5 5 -17 10 -25 5 -8 10 -10 10 -5 0 6 -5 17 -10 25
-5 8 -10 11 -10 5z"/>
<path d="M3830 3633 c0 -68 0 -68 -75 -75 -24 -2 -31 -9 -38 -35 -15 -52 -5
-63 57 -63 l55 0 3 -47 3 -48 43 -3 42 -3 0 50 0 51 55 0 c64 0 73 11 59 69
-9 38 -7 37 -91 40 -21 1 -23 6 -23 60 l0 59 -45 4 -45 3 0 -62z"/>
<path d="M6235 3644 c9 -71 -2 -84 -66 -84 l-49 0 0 -55 0 -55 55 0 c59 0 57
2 67 -90 3 -22 8 -25 40 -24 60 2 68 9 68 58 0 50 8 56 76 56 l45 0 -3 53 -3
52 -62 3 -63 3 0 63 c0 70 -6 76 -79 76 l-33 0 7 -56z"/>
<path d="M2004 3379 c-19 -21 -23 -71 -10 -123 15 -59 86 -14 86 53 0 83 -35
115 -76 70z"/>
<path d="M1460 3309 c0 -79 0 -80 23 -74 33 10 47 34 47 80 0 44 -22 75 -53
75 -15 0 -17 -12 -17 -81z"/>
<path d="M2190 3360 c0 -44 5 -47 38 -24 27 19 28 40 3 54 -33 17 -41 11 -41
-30z"/>
<path d="M2453 2432 c-29 -3 -32 -7 -38 -45 -3 -23 -5 -91 -3 -152 l3 -110
171 -3 c203 -3 184 -21 184 169 0 99 -3 129 -15 139 -13 11 -195 12 -302 2z"/>
<path d="M2932 2428 c-8 -8 -12 -58 -12 -160 l0 -148 163 0 c113 0 167 4 175
12 15 15 17 261 2 289 -10 17 -23 19 -163 19 -106 0 -157 -4 -165 -12z"/>
<path d="M3407 2433 c-9 -8 -9 -276 -1 -297 5 -14 28 -16 148 -16 107 0 147 4
162 14 17 13 19 27 19 144 0 94 -4 133 -14 145 -11 14 -36 17 -161 17 -80 0
-150 -3 -153 -7z"/>
<path d="M3889 2424 c-15 -19 -26 -210 -14 -270 l6 -34 148 0 c114 0 151 3
160 14 8 9 11 60 9 157 l-3 144 -146 3 c-127 2 -148 0 -160 -14z"/>
<path d="M4344 2427 c-2 -7 -3 -78 -2 -157 l3 -145 158 -3 157 -3 0 161 0 160
-155 0 c-118 0 -157 -3 -161 -13z"/>
<path d="M4802 2432 c-9 -6 -12 -45 -10 -158 l3 -149 146 -3 c116 -2 149 0
158 12 8 9 11 59 9 157 l-3 144 -145 2 c-80 2 -151 -1 -158 -5z"/>
<path d="M5235 2422 c-7 -19 -6 -252 1 -279 6 -22 10 -23 145 -23 126 0 139 2
149 19 12 23 12 246 1 276 -8 19 -17 20 -149 20 -109 0 -143 -3 -147 -13z"/>
<path d="M5722 2433 l-64 -4 4 -142 c1 -78 7 -148 11 -154 11 -18 268 -18 285
-1 8 8 12 56 12 148 0 92 -4 140 -12 148 -12 12 -85 13 -236 5z"/>
<path d="M6111 2430 c-13 -8 -21 -286 -8 -299 6 -6 47 -11 94 -11 l83 0 2
-202 3 -203 168 -3 167 -2 0 52 c-1 117 -39 638 -49 655 -9 16 -29 18 -231 18
-122 0 -225 -2 -229 -5z"/>
<path d="M2543 2021 c-83 -3 -154 -9 -158 -13 -4 -4 -9 -72 -12 -152 l-6 -146
187 0 186 0 0 160 c0 160 0 160 -22 158 -13 -1 -91 -4 -175 -7z"/>
<path d="M3400 2023 c-76 -3 -117 -8 -122 -16 -4 -7 -8 -74 -8 -149 0 -121 2
-138 18 -146 19 -11 280 -8 290 3 4 4 5 73 4 153 -4 152 -7 164 -47 160 -11
-1 -72 -4 -135 -5z"/>
<path d="M3824 2023 l-121 -4 -6 -132 c-7 -189 -13 -181 148 -185 72 -1 137 2
145 8 12 7 15 37 17 152 1 150 -4 170 -41 166 -11 -1 -76 -4 -142 -5z"/>
<path d="M4235 2021 l-110 -6 -3 -135 c-1 -74 0 -144 2 -156 6 -20 10 -21 143
-18 76 2 141 3 146 4 4 0 6 71 5 158 l-3 157 -35 1 c-19 0 -84 -2 -145 -5z"/>
<path d="M4620 2021 l-75 -6 0 -155 0 -155 148 0 c87 0 152 4 156 10 5 6 6 79
3 163 l-4 152 -77 -2 c-42 -1 -110 -4 -151 -7z"/>
<path d="M5094 2023 l-111 -4 -5 -137 c-3 -75 -3 -145 0 -154 6 -23 60 -30
192 -26 l105 3 6 150 c3 83 4 156 1 163 -2 7 -19 11 -41 10 -20 -1 -86 -4
-147 -5z"/>
<path d="M5518 2023 l-108 -4 0 -148 c0 -107 4 -151 13 -158 7 -6 70 -9 147
-8 l135 2 0 159 0 159 -40 1 c-22 0 -88 -1 -147 -3z"/>
<path d="M5950 2021 l-114 -6 3 -145 c1 -81 7 -151 13 -157 7 -9 50 -13 149
-13 l139 0 -2 163 -3 162 -35 1 c-19 0 -87 -2 -150 -5z"/>
<path d="M2869 1993 c-12 -30 -7 -251 5 -272 5 -7 51 -11 141 -11 130 0 133 1
138 23 4 16 2 190 -3 280 0 4 -61 7 -135 7 l-135 0 -11 -27z"/>
<path d="M2356 1533 c-4 -43 -9 -108 -12 -145 -4 -58 -2 -70 15 -87 20 -20 32
-21 270 -21 219 0 250 2 262 17 11 12 14 53 14 162 l0 146 -272 3 -271 2 -6
-77z"/>
<path d="M3040 1496 c0 -62 -3 -127 -6 -144 -5 -23 -1 -35 16 -52 22 -22 27
-22 149 -15 76 4 129 12 133 19 4 6 8 77 8 159 l0 147 -150 0 -150 0 0 -114z"/>
<path d="M3468 1604 c-3 -3 -4 -69 -1 -147 4 -107 9 -146 21 -159 22 -26 242
-27 263 -1 10 11 15 58 17 165 l4 148 -149 0 c-83 0 -152 -3 -155 -6z"/>
<path d="M3898 1605 c-12 -13 -9 -284 2 -306 10 -18 27 -19 565 -19 l554 0 10
38 c6 20 11 92 11 160 l0 122 -253 0 c-140 0 -395 3 -568 6 -173 4 -317 3
-321 -1z"/>
<path d="M5167 1476 c-3 -73 -2 -146 2 -162 l8 -29 137 1 c107 1 140 4 147 15
5 8 9 80 9 162 l0 147 -148 0 -149 0 -6 -134z"/>
<path d="M5600 1462 c0 -189 -6 -182 153 -182 151 0 147 -6 147 187 l0 143
-150 0 -150 0 0 -148z"/>
<path d="M6044 1597 c-2 -7 -3 -80 -2 -162 l3 -150 266 -3 c301 -3 302 -2 319
73 9 38 4 231 -6 247 -3 5 -133 8 -290 8 -224 0 -286 -3 -290 -13z"/>
<path d="M1921 7666 c-26 -28 -22 -54 10 -74 19 -12 25 -11 48 6 34 25 37 46
12 71 -27 27 -42 26 -70 -3z"/>
<path d="M1215 7660 c-39 -43 11 -106 60 -74 33 22 41 51 19 75 -22 24 -56 24
-79 -1z"/>
<path d="M1713 7640 c-50 -11 -136 -57 -163 -84 -14 -16 -52 -109 -100 -248
-105 -301 -178 -489 -198 -511 -15 -17 -17 -57 -20 -358 l-4 -339 -54 0 c-80
0 -138 -18 -182 -56 -70 -59 -68 -44 -70 -684 l-3 -575 33 -55 c18 -30 52 -68
76 -84 37 -26 55 -31 116 -34 l73 -4 7 -124 c9 -154 22 -208 70 -273 44 -60
97 -94 181 -115 156 -41 325 0 399 97 63 83 60 -2 57 1356 -1 679 -5 1240 -10
1245 -5 6 -20 45 -34 86 -44 129 -126 351 -167 451 -39 96 -62 209 -43 209 18
0 105 88 98 99 -7 12 -16 12 -62 1z m-123 -352 c0 -20 6 -27 23 -30 19 -3 31
-30 99 -233 42 -126 77 -233 77 -236 1 -3 -91 -6 -204 -7 -115 -1 -205 2 -205
7 0 5 43 129 95 277 52 147 95 270 95 273 1 20 20 -29 20 -51z m-131 -1518
l-2 -910 -57 0 -57 0 -5 478 c-2 262 -4 511 -3 552 1 41 3 236 3 433 l2 357
60 0 60 0 -1 -910z m-245 214 c10 -4 16 -18 16 -39 0 -32 -1 -33 -56 -41 -45
-7 -61 -15 -78 -37 -20 -27 -21 -46 -28 -285 -4 -141 -4 -358 -1 -481 l6 -224
29 -33 c22 -24 41 -35 74 -40 34 -5 44 -11 44 -25 0 -27 -39 -49 -85 -49 -32
0 -47 6 -67 28 -55 59 -53 36 -50 605 2 573 1 561 58 606 27 21 102 29 138 15z
m16 -629 c0 -245 -2 -445 -4 -445 -3 0 -16 4 -30 10 l-26 10 0 435 0 435 30 0
30 0 0 -445z m600 -635 l0 -40 -255 0 -255 0 0 40 0 40 255 0 255 0 0 -40z
m-5 -170 l0 -35 -60 -6 c-33 -4 -147 -7 -252 -8 -210 -1 -199 -4 -187 58 l7
31 246 -2 246 -3 0 -35z m-342 -158 c-6 -4 -10 -30 -10 -61 2 -50 0 -56 -25
-70 -25 -15 -28 -14 -53 9 -34 32 -55 72 -55 105 0 25 1 25 78 25 42 0 72 -4
65 -8z m137 -32 c0 -20 -16 -32 -67 -50 l-28 -11 25 24 c14 13 31 34 39 45 17
24 31 20 31 -8z"/>
<path d="M8621 7434 c-18 -23 -19 -29 -6 -53 7 -15 21 -33 30 -41 13 -11 19
-9 40 10 32 30 32 63 -1 89 -34 27 -38 26 -63 -5z"/>
<path d="M8036 7354 c-29 -28 -12 -64 30 -64 13 0 26 -4 29 -10 12 -19 45 -10
57 15 18 39 -11 75 -62 75 -22 0 -45 -7 -54 -16z"/>
<path d="M8073 6183 c-68 -4 -66 -2 -66 -73 0 -16 1 -73 2 -125 l1 -95 145 3
145 2 0 95 c0 52 3 119 6 148 l7 52 -89 -2 c-49 -1 -117 -3 -151 -5z m147
-138 l0 -65 -70 0 -70 0 0 59 c0 67 0 67 93 70 l47 1 0 -65z"/>
<path d="M8392 6108 c3 -20 10 -23 51 -26 45 -3 47 -2 47 22 0 24 -3 26 -51
26 -47 0 -50 -2 -47 -22z"/>
<path d="M8510 6105 l0 -25 255 -2 c140 -1 263 -2 273 -2 11 -1 18 8 20 27 l3
27 -275 0 -276 0 0 -25z"/>
<path d="M8400 5924 l0 -37 61 7 c34 3 108 6 164 6 96 0 103 1 113 23 l11 22
0 -22 c1 -23 2 -23 156 -23 l155 0 0 30 0 30 -330 0 -330 0 0 -36z"/>
<path d="M8134 5793 l-121 -4 -6 -67 c-4 -37 -4 -104 0 -149 l6 -83 148 0 149
0 0 145 c0 80 1 148 3 153 2 8 -21 9 -179 5z m84 -153 l3 -70 -48 0 c-88 0
-93 4 -93 71 0 64 0 64 95 67 l40 2 3 -70z"/>
<path d="M8410 5715 l0 -35 315 0 c301 1 315 2 315 20 0 10 3 25 6 34 6 14
-26 16 -315 16 l-321 0 0 -35z"/>
<path d="M8787 5553 c-13 -3 -17 -12 -15 -31 3 -26 5 -27 81 -30 l77 -3 0 36
0 35 -62 -1 c-35 -1 -71 -3 -81 -6z"/>
<path d="M8410 5525 l0 -26 148 3 c144 3 147 3 150 26 3 22 3 22 -147 22
l-151 0 0 -25z"/>
<path d="M8130 5371 l-115 -6 -3 -142 -3 -143 94 0 c52 0 114 -2 138 -5 72 -9
73 -7 64 159 l-7 146 -27 -2 c-14 -1 -78 -4 -141 -7z m70 -138 l-5 -58 -52 0
-53 -1 0 48 c0 55 14 67 75 68 l40 0 -5 -57z"/>
<path d="M8408 5335 c-2 -3 -3 -18 0 -35 l4 -30 319 0 319 0 0 35 0 35 -318 0
c-175 0 -321 -2 -324 -5z"/>
<path d="M8404 5134 c3 -9 6 -22 6 -30 0 -11 26 -14 144 -14 141 0 144 0 150
23 3 12 6 25 6 30 0 4 -70 7 -156 7 -138 0 -155 -2 -150 -16z"/>
<path d="M8764 5134 c3 -9 6 -22 6 -30 0 -11 16 -14 65 -14 36 0 65 4 65 10 0
6 9 6 26 0 14 -6 45 -10 68 -10 43 0 55 12 56 53 0 4 -66 7 -146 7 -129 0
-145 -2 -140 -16z"/>
<path d="M8073 4973 l-43 -4 0 -105 0 -104 88 0 c48 0 111 -3 140 -6 l52 -7 0
117 0 116 -97 -2 c-54 -1 -117 -3 -140 -5z m137 -103 c0 -25 -5 -40 -12 -40
-7 0 -30 -3 -50 -6 -35 -6 -38 -5 -38 18 0 41 28 65 78 67 19 1 22 -4 22 -39z"/>
<path d="M7910 4350 c-26 -26 -25 -46 5 -75 28 -29 42 -31 73 -9 44 31 16 104
-40 104 -10 0 -27 -9 -38 -20z"/>
<path d="M9027 4342 c-34 -37 -9 -112 37 -112 51 0 74 72 36 110 -25 25 -52
26 -73 2z"/>
<path d="M1041 4221 c-28 -28 -26 -55 5 -80 25 -20 28 -20 55 -4 38 23 44 42
21 73 -24 32 -55 37 -81 11z"/>
<path d="M1656 2448 c-7 -13 -19 -40 -26 -62 l-12 -38 -48 6 c-56 8 -62 2 -70
-64 -4 -38 -10 -47 -35 -59 -35 -17 -45 -28 -45 -57 0 -26 27 -51 60 -56 23
-3 25 -8 28 -62 l3 -58 32 6 c70 13 70 13 79 -24 10 -38 49 -80 76 -80 28 1
60 32 81 82 20 47 21 47 51 37 39 -14 60 -6 60 25 0 34 15 71 40 96 25 25 25
57 0 95 -11 17 -20 42 -20 56 0 45 -22 63 -68 57 -46 -7 -53 -1 -71 51 -6 19
-19 43 -28 53 -23 26 -69 23 -87 -4z m113 -175 c24 -21 34 -39 38 -70 5 -40 3
-46 -35 -83 -22 -22 -48 -40 -59 -40 -25 0 -115 64 -124 87 -10 30 9 80 42
107 42 36 94 35 138 -1z"/>
<path d="M1736 2185 c4 -8 8 -15 10 -15 2 0 4 7 4 15 0 8 -4 15 -10 15 -5 0
-7 -7 -4 -15z"/>
<path d="M8047 2394 c-4 -4 -7 -21 -7 -39 0 -57 40 -73 79 -31 14 15 21 33 19
48 -2 19 -10 23 -43 26 -23 2 -44 0 -48 -4z"/>
<path d="M8344 2358 c8 -55 0 -66 -60 -81 l-49 -12 -3 -67 -3 -67 48 -3 48 -3
11 -46 c22 -87 39 -102 97 -80 18 7 27 22 36 55 12 49 32 66 79 66 29 0 29 1
36 65 4 36 4 70 1 75 -3 5 -20 11 -38 15 -64 13 -65 14 -78 70 l-12 55 -60 0
-59 0 6 -42z"/>
<path d="M7030 2375 c-19 -23 -15 -64 8 -87 24 -24 44 -19 68 17 16 25 16 27
-3 53 -24 32 -55 39 -73 17z"/>
<path d="M7446 2299 c-122 -29 -258 -145 -322 -275 l-39 -78 0 -141 c0 -139 0
-141 34 -209 43 -89 138 -184 224 -225 142 -68 382 -66 518 4 17 10 64 49 103
89 94 93 126 168 134 307 9 177 -36 300 -149 410 -68 67 -140 105 -229 119
-78 12 -220 12 -274 -1z m122 -201 c-5 -57 -6 -155 -3 -218 6 -131 6 -133 -78
-189 -31 -22 -63 -34 -95 -37 -57 -5 -95 -31 -102 -70 l-5 -28 -23 28 c-12 16
-36 57 -53 92 -29 58 -31 69 -27 146 3 68 9 95 35 150 63 134 191 222 328 227
l30 1 -7 -102z m196 70 c77 -41 151 -117 184 -188 22 -47 26 -69 26 -155 1
-57 -5 -120 -13 -148 -12 -41 -16 -46 -30 -35 -14 11 -14 11 -3 -4 11 -14 11
-22 -3 -47 -18 -35 -27 -38 -49 -15 -21 20 -20 24 4 19 16 -3 20 2 20 22 0 25
-2 25 -44 20 -35 -5 -48 -2 -67 14 -13 12 -45 35 -71 51 -26 17 -50 38 -52 47
-4 14 -1 423 3 444 2 15 35 6 95 -25z m-180 -585 c3 -21 6 -64 6 -95 0 -56 -1
-58 -26 -58 -37 0 -164 32 -164 41 0 4 15 16 33 28 17 11 54 43 82 70 27 28
52 51 56 51 3 0 9 -17 13 -37z"/>
<path d="M7117 1239 c-18 -24 -12 -51 14 -75 19 -17 21 -17 51 13 30 31 31 32
14 57 -20 32 -59 34 -79 5z"/>
</g>
</svg>
